<mxfile host="app.diagrams.net" modified="2023-10-26T07:15:15.984Z" agent="Mozilla/5.0 (Windows NT 10.0; Win64; x64) AppleWebKit/537.36 (KHTML, like Gecko) Chrome/118.0.0.0 Safari/537.36" etag="BO4BMW0E6XWJSpvgGD_p" version="22.0.8" type="device">
  <diagram id="C5RBs43oDa-KdzZeNtuy" name="Page-1">
    <mxGraphModel dx="4348" dy="3673" grid="1" gridSize="10" guides="1" tooltips="1" connect="1" arrows="1" fold="1" page="1" pageScale="1" pageWidth="1200" pageHeight="1920" math="0" shadow="0">
      <root>
        <mxCell id="WIyWlLk6GJQsqaUBKTNV-0" />
        <mxCell id="WIyWlLk6GJQsqaUBKTNV-1" parent="WIyWlLk6GJQsqaUBKTNV-0" />
        <mxCell id="hfUMV4JjxT8LaMkukJHo-2" value="" style="edgeStyle=orthogonalEdgeStyle;rounded=0;orthogonalLoop=1;jettySize=auto;html=1;" parent="WIyWlLk6GJQsqaUBKTNV-1" source="hfUMV4JjxT8LaMkukJHo-0" target="hfUMV4JjxT8LaMkukJHo-1" edge="1">
          <mxGeometry relative="1" as="geometry" />
        </mxCell>
        <mxCell id="hfUMV4JjxT8LaMkukJHo-0" value="로그인" style="ellipse;whiteSpace=wrap;html=1;" parent="WIyWlLk6GJQsqaUBKTNV-1" vertex="1">
          <mxGeometry x="690" y="-60" width="120" height="80" as="geometry" />
        </mxCell>
        <mxCell id="hfUMV4JjxT8LaMkukJHo-4" style="edgeStyle=orthogonalEdgeStyle;rounded=0;orthogonalLoop=1;jettySize=auto;html=1;" parent="WIyWlLk6GJQsqaUBKTNV-1" source="hfUMV4JjxT8LaMkukJHo-1" edge="1">
          <mxGeometry relative="1" as="geometry">
            <mxPoint x="750" y="280" as="targetPoint" />
          </mxGeometry>
        </mxCell>
        <mxCell id="hfUMV4JjxT8LaMkukJHo-1" value="메인 화면" style="rounded=1;whiteSpace=wrap;html=1;" parent="WIyWlLk6GJQsqaUBKTNV-1" vertex="1">
          <mxGeometry x="690" y="90" width="120" height="60" as="geometry" />
        </mxCell>
        <mxCell id="3d2tBKjzDwxo3XAQTUSo-1" style="edgeStyle=orthogonalEdgeStyle;rounded=0;orthogonalLoop=1;jettySize=auto;html=1;strokeColor=#FF3333;" parent="WIyWlLk6GJQsqaUBKTNV-1" target="3d2tBKjzDwxo3XAQTUSo-0" edge="1">
          <mxGeometry relative="1" as="geometry">
            <mxPoint x="329.99999999999955" y="480" as="sourcePoint" />
            <Array as="points">
              <mxPoint x="330" y="520" />
              <mxPoint x="240" y="520" />
            </Array>
          </mxGeometry>
        </mxCell>
        <mxCell id="3d2tBKjzDwxo3XAQTUSo-96" style="edgeStyle=orthogonalEdgeStyle;rounded=0;orthogonalLoop=1;jettySize=auto;html=1;entryX=0.5;entryY=0;entryDx=0;entryDy=0;strokeColor=#FF3333;" parent="WIyWlLk6GJQsqaUBKTNV-1" target="3d2tBKjzDwxo3XAQTUSo-19" edge="1">
          <mxGeometry relative="1" as="geometry">
            <mxPoint x="329.99999999999955" y="480" as="sourcePoint" />
            <Array as="points">
              <mxPoint x="330" y="520" />
              <mxPoint x="490" y="520" />
            </Array>
          </mxGeometry>
        </mxCell>
        <mxCell id="hfUMV4JjxT8LaMkukJHo-50" style="edgeStyle=orthogonalEdgeStyle;rounded=0;orthogonalLoop=1;jettySize=auto;html=1;" parent="WIyWlLk6GJQsqaUBKTNV-1" source="hfUMV4JjxT8LaMkukJHo-7" edge="1">
          <mxGeometry relative="1" as="geometry">
            <mxPoint x="750" y="410" as="targetPoint" />
          </mxGeometry>
        </mxCell>
        <mxCell id="3d2tBKjzDwxo3XAQTUSo-98" style="edgeStyle=orthogonalEdgeStyle;rounded=0;orthogonalLoop=1;jettySize=auto;html=1;" parent="WIyWlLk6GJQsqaUBKTNV-1" source="hfUMV4JjxT8LaMkukJHo-7" target="3d2tBKjzDwxo3XAQTUSo-97" edge="1">
          <mxGeometry relative="1" as="geometry">
            <Array as="points">
              <mxPoint x="750" y="350" />
              <mxPoint x="330" y="350" />
            </Array>
          </mxGeometry>
        </mxCell>
        <mxCell id="hfUMV4JjxT8LaMkukJHo-7" value="" style="whiteSpace=wrap;html=1;rounded=0;shadow=0;comic=0;labelBackgroundColor=none;strokeWidth=1;fillColor=#000000;fontFamily=Verdana;fontSize=12;align=center;rotation=0;" parent="WIyWlLk6GJQsqaUBKTNV-1" vertex="1">
          <mxGeometry x="630" y="280" width="240" height="10" as="geometry" />
        </mxCell>
        <mxCell id="hfUMV4JjxT8LaMkukJHo-18" value="" style="edgeStyle=orthogonalEdgeStyle;rounded=0;orthogonalLoop=1;jettySize=auto;html=1;strokeColor=#FF3333;" parent="WIyWlLk6GJQsqaUBKTNV-1" source="hfUMV4JjxT8LaMkukJHo-15" target="hfUMV4JjxT8LaMkukJHo-17" edge="1">
          <mxGeometry relative="1" as="geometry" />
        </mxCell>
        <mxCell id="hfUMV4JjxT8LaMkukJHo-39" style="edgeStyle=orthogonalEdgeStyle;rounded=0;orthogonalLoop=1;jettySize=auto;html=1;entryX=0.5;entryY=0;entryDx=0;entryDy=0;strokeColor=#FF3333;" parent="WIyWlLk6GJQsqaUBKTNV-1" source="hfUMV4JjxT8LaMkukJHo-15" edge="1">
          <mxGeometry relative="1" as="geometry">
            <mxPoint x="47.940000000000055" y="880" as="targetPoint" />
            <Array as="points">
              <mxPoint x="-62" y="850" />
              <mxPoint x="48" y="850" />
            </Array>
          </mxGeometry>
        </mxCell>
        <mxCell id="hfUMV4JjxT8LaMkukJHo-15" value="수거 신청 여부" style="rhombus;whiteSpace=wrap;html=1;rounded=1;" parent="WIyWlLk6GJQsqaUBKTNV-1" vertex="1">
          <mxGeometry x="-112.06" y="740" width="100" height="80" as="geometry" />
        </mxCell>
        <mxCell id="hfUMV4JjxT8LaMkukJHo-24" value="" style="edgeStyle=orthogonalEdgeStyle;rounded=0;orthogonalLoop=1;jettySize=auto;html=1;" parent="WIyWlLk6GJQsqaUBKTNV-1" source="hfUMV4JjxT8LaMkukJHo-17" target="hfUMV4JjxT8LaMkukJHo-23" edge="1">
          <mxGeometry relative="1" as="geometry" />
        </mxCell>
        <mxCell id="hfUMV4JjxT8LaMkukJHo-17" value="수거일 지정 신청" style="whiteSpace=wrap;html=1;rounded=1;" parent="WIyWlLk6GJQsqaUBKTNV-1" vertex="1">
          <mxGeometry x="-232.06" y="880" width="120" height="60" as="geometry" />
        </mxCell>
        <mxCell id="hfUMV4JjxT8LaMkukJHo-338" style="edgeStyle=orthogonalEdgeStyle;rounded=0;orthogonalLoop=1;jettySize=auto;html=1;fillColor=#fff2cc;strokeColor=#d6b656;dashed=1;" parent="WIyWlLk6GJQsqaUBKTNV-1" source="hfUMV4JjxT8LaMkukJHo-22" target="hfUMV4JjxT8LaMkukJHo-304" edge="1">
          <mxGeometry relative="1" as="geometry">
            <Array as="points">
              <mxPoint x="730" y="1505" />
            </Array>
          </mxGeometry>
        </mxCell>
        <mxCell id="hfUMV4JjxT8LaMkukJHo-22" value="수거신청 완료" style="ellipse;whiteSpace=wrap;html=1;aspect=fixed;" parent="WIyWlLk6GJQsqaUBKTNV-1" vertex="1">
          <mxGeometry x="690" y="1350" width="80" height="80" as="geometry" />
        </mxCell>
        <mxCell id="hfUMV4JjxT8LaMkukJHo-28" value="" style="edgeStyle=orthogonalEdgeStyle;rounded=0;orthogonalLoop=1;jettySize=auto;html=1;strokeColor=#FF3333;" parent="WIyWlLk6GJQsqaUBKTNV-1" source="hfUMV4JjxT8LaMkukJHo-23" edge="1">
          <mxGeometry relative="1" as="geometry">
            <mxPoint x="-262.06" y="1050" as="targetPoint" />
          </mxGeometry>
        </mxCell>
        <mxCell id="hfUMV4JjxT8LaMkukJHo-374" style="edgeStyle=orthogonalEdgeStyle;rounded=0;orthogonalLoop=1;jettySize=auto;html=1;entryX=0.5;entryY=0;entryDx=0;entryDy=0;strokeColor=#FF3333;" parent="WIyWlLk6GJQsqaUBKTNV-1" source="hfUMV4JjxT8LaMkukJHo-23" target="hfUMV4JjxT8LaMkukJHo-33" edge="1">
          <mxGeometry relative="1" as="geometry">
            <Array as="points">
              <mxPoint x="-172.06" y="1200" />
              <mxPoint x="-142.06" y="1200" />
            </Array>
          </mxGeometry>
        </mxCell>
        <mxCell id="hfUMV4JjxT8LaMkukJHo-23" value="수거일 변경" style="rhombus;whiteSpace=wrap;html=1;" parent="WIyWlLk6GJQsqaUBKTNV-1" vertex="1">
          <mxGeometry x="-220.06" y="1010" width="96" height="80" as="geometry" />
        </mxCell>
        <mxCell id="hfUMV4JjxT8LaMkukJHo-26" value="NO" style="text;html=1;strokeColor=default;fillColor=none;align=center;verticalAlign=middle;whiteSpace=wrap;rounded=0;" parent="WIyWlLk6GJQsqaUBKTNV-1" vertex="1">
          <mxGeometry x="-172.06" y="810" width="60" height="30" as="geometry" />
        </mxCell>
        <mxCell id="hfUMV4JjxT8LaMkukJHo-339" style="edgeStyle=orthogonalEdgeStyle;rounded=0;orthogonalLoop=1;jettySize=auto;html=1;dashed=1;fillColor=#fff2cc;strokeColor=#d6b656;" parent="WIyWlLk6GJQsqaUBKTNV-1" edge="1">
          <mxGeometry relative="1" as="geometry">
            <mxPoint x="-330.45" y="1020" as="sourcePoint" />
            <mxPoint x="-330.45" y="979.9999999999995" as="targetPoint" />
          </mxGeometry>
        </mxCell>
        <mxCell id="hfUMV4JjxT8LaMkukJHo-27" value="수거일 변경" style="rounded=1;whiteSpace=wrap;html=1;" parent="WIyWlLk6GJQsqaUBKTNV-1" vertex="1">
          <mxGeometry x="-390" y="1020" width="120" height="60" as="geometry" />
        </mxCell>
        <mxCell id="hfUMV4JjxT8LaMkukJHo-29" value="YES" style="text;html=1;strokeColor=default;fillColor=none;align=center;verticalAlign=middle;whiteSpace=wrap;rounded=0;" parent="WIyWlLk6GJQsqaUBKTNV-1" vertex="1">
          <mxGeometry x="-262.06" y="990" width="60" height="30" as="geometry" />
        </mxCell>
        <mxCell id="hfUMV4JjxT8LaMkukJHo-30" value="NO" style="text;html=1;strokeColor=default;fillColor=none;align=center;verticalAlign=middle;whiteSpace=wrap;rounded=0;" parent="WIyWlLk6GJQsqaUBKTNV-1" vertex="1">
          <mxGeometry x="-162.06" y="1110" width="60" height="30" as="geometry" />
        </mxCell>
        <mxCell id="hfUMV4JjxT8LaMkukJHo-41" style="edgeStyle=orthogonalEdgeStyle;rounded=0;orthogonalLoop=1;jettySize=auto;html=1;entryX=0;entryY=0.5;entryDx=0;entryDy=0;" parent="WIyWlLk6GJQsqaUBKTNV-1" source="hfUMV4JjxT8LaMkukJHo-33" target="hfUMV4JjxT8LaMkukJHo-22" edge="1">
          <mxGeometry relative="1" as="geometry">
            <Array as="points">
              <mxPoint x="-142" y="1390" />
              <mxPoint x="550" y="1390" />
            </Array>
          </mxGeometry>
        </mxCell>
        <mxCell id="hfUMV4JjxT8LaMkukJHo-33" value="" style="whiteSpace=wrap;html=1;rounded=0;shadow=0;comic=0;labelBackgroundColor=none;strokeWidth=1;fillColor=#000000;fontFamily=Verdana;fontSize=12;align=center;rotation=0;" parent="WIyWlLk6GJQsqaUBKTNV-1" vertex="1">
          <mxGeometry x="-269.99999999999994" y="1300" width="240" height="10" as="geometry" />
        </mxCell>
        <mxCell id="hfUMV4JjxT8LaMkukJHo-44" value="" style="edgeStyle=orthogonalEdgeStyle;rounded=0;orthogonalLoop=1;jettySize=auto;html=1;strokeColor=#FF3333;" parent="WIyWlLk6GJQsqaUBKTNV-1" target="hfUMV4JjxT8LaMkukJHo-43" edge="1">
          <mxGeometry relative="1" as="geometry">
            <mxPoint x="47.940000000000055" y="940" as="sourcePoint" />
          </mxGeometry>
        </mxCell>
        <mxCell id="hfUMV4JjxT8LaMkukJHo-40" value="YES" style="text;html=1;strokeColor=default;fillColor=none;align=center;verticalAlign=middle;whiteSpace=wrap;rounded=0;" parent="WIyWlLk6GJQsqaUBKTNV-1" vertex="1">
          <mxGeometry x="9.999999999999996" y="655" width="60" height="30" as="geometry" />
        </mxCell>
        <mxCell id="hfUMV4JjxT8LaMkukJHo-47" style="edgeStyle=orthogonalEdgeStyle;rounded=0;orthogonalLoop=1;jettySize=auto;html=1;exitX=0;exitY=0.5;exitDx=0;exitDy=0;entryX=1;entryY=0.5;entryDx=0;entryDy=0;strokeColor=#FF3333;" parent="WIyWlLk6GJQsqaUBKTNV-1" source="hfUMV4JjxT8LaMkukJHo-43" target="hfUMV4JjxT8LaMkukJHo-23" edge="1">
          <mxGeometry relative="1" as="geometry" />
        </mxCell>
        <mxCell id="hfUMV4JjxT8LaMkukJHo-375" style="edgeStyle=orthogonalEdgeStyle;rounded=0;orthogonalLoop=1;jettySize=auto;html=1;entryX=0.5;entryY=0;entryDx=0;entryDy=0;strokeColor=#FF3333;" parent="WIyWlLk6GJQsqaUBKTNV-1" source="hfUMV4JjxT8LaMkukJHo-43" target="hfUMV4JjxT8LaMkukJHo-33" edge="1">
          <mxGeometry relative="1" as="geometry">
            <Array as="points">
              <mxPoint x="47.94" y="1200" />
              <mxPoint x="-142.06" y="1200" />
            </Array>
          </mxGeometry>
        </mxCell>
        <mxCell id="hfUMV4JjxT8LaMkukJHo-43" value="수거일 변경 가능" style="rhombus;whiteSpace=wrap;html=1;" parent="WIyWlLk6GJQsqaUBKTNV-1" vertex="1">
          <mxGeometry x="-0.060000000000002274" y="1010" width="96" height="80" as="geometry" />
        </mxCell>
        <mxCell id="hfUMV4JjxT8LaMkukJHo-46" value="NO" style="text;html=1;strokeColor=default;fillColor=none;align=center;verticalAlign=middle;whiteSpace=wrap;rounded=0;" parent="WIyWlLk6GJQsqaUBKTNV-1" vertex="1">
          <mxGeometry x="-20" y="1100" width="60" height="30" as="geometry" />
        </mxCell>
        <mxCell id="hfUMV4JjxT8LaMkukJHo-48" value="YES" style="text;html=1;strokeColor=default;fillColor=none;align=center;verticalAlign=middle;whiteSpace=wrap;rounded=0;" parent="WIyWlLk6GJQsqaUBKTNV-1" vertex="1">
          <mxGeometry x="-30" y="970" width="60" height="30" as="geometry" />
        </mxCell>
        <mxCell id="hfUMV4JjxT8LaMkukJHo-49" value="수거일 변경&lt;br&gt;수거 신청 당일 00:00 까지 가능" style="text;html=1;strokeColor=#FF3333;fillColor=#FFFF33;align=center;verticalAlign=middle;whiteSpace=wrap;rounded=0;sketch=1;curveFitting=1;jiggle=2;" parent="WIyWlLk6GJQsqaUBKTNV-1" vertex="1">
          <mxGeometry x="-390" y="920" width="120" height="60" as="geometry" />
        </mxCell>
        <mxCell id="hfUMV4JjxT8LaMkukJHo-53" value="" style="edgeStyle=orthogonalEdgeStyle;rounded=0;orthogonalLoop=1;jettySize=auto;html=1;" parent="WIyWlLk6GJQsqaUBKTNV-1" source="hfUMV4JjxT8LaMkukJHo-51" target="hfUMV4JjxT8LaMkukJHo-52" edge="1">
          <mxGeometry relative="1" as="geometry" />
        </mxCell>
        <mxCell id="hfUMV4JjxT8LaMkukJHo-51" value="미구매 사용자" style="rounded=1;whiteSpace=wrap;html=1;" parent="WIyWlLk6GJQsqaUBKTNV-1" vertex="1">
          <mxGeometry x="690" y="410" width="120" height="60" as="geometry" />
        </mxCell>
        <mxCell id="hfUMV4JjxT8LaMkukJHo-55" value="" style="edgeStyle=orthogonalEdgeStyle;rounded=0;orthogonalLoop=1;jettySize=auto;html=1;" parent="WIyWlLk6GJQsqaUBKTNV-1" source="hfUMV4JjxT8LaMkukJHo-52" target="hfUMV4JjxT8LaMkukJHo-54" edge="1">
          <mxGeometry relative="1" as="geometry" />
        </mxCell>
        <mxCell id="hfUMV4JjxT8LaMkukJHo-79" style="edgeStyle=orthogonalEdgeStyle;rounded=0;orthogonalLoop=1;jettySize=auto;html=1;dashed=1;dashPattern=1 1;fillColor=#fff2cc;strokeColor=#d6b656;" parent="WIyWlLk6GJQsqaUBKTNV-1" source="hfUMV4JjxT8LaMkukJHo-52" target="hfUMV4JjxT8LaMkukJHo-71" edge="1">
          <mxGeometry relative="1" as="geometry" />
        </mxCell>
        <mxCell id="hfUMV4JjxT8LaMkukJHo-52" value="쇼핑" style="whiteSpace=wrap;html=1;rounded=1;" parent="WIyWlLk6GJQsqaUBKTNV-1" vertex="1">
          <mxGeometry x="690" y="550" width="120" height="60" as="geometry" />
        </mxCell>
        <mxCell id="hfUMV4JjxT8LaMkukJHo-59" value="" style="edgeStyle=orthogonalEdgeStyle;rounded=0;orthogonalLoop=1;jettySize=auto;html=1;" parent="WIyWlLk6GJQsqaUBKTNV-1" source="hfUMV4JjxT8LaMkukJHo-54" edge="1">
          <mxGeometry relative="1" as="geometry">
            <mxPoint x="750" y="820" as="targetPoint" />
          </mxGeometry>
        </mxCell>
        <mxCell id="hfUMV4JjxT8LaMkukJHo-54" value="모래수거 선택" style="whiteSpace=wrap;html=1;rounded=1;" parent="WIyWlLk6GJQsqaUBKTNV-1" vertex="1">
          <mxGeometry x="690" y="690" width="120" height="60" as="geometry" />
        </mxCell>
        <mxCell id="hfUMV4JjxT8LaMkukJHo-64" value="" style="edgeStyle=orthogonalEdgeStyle;rounded=0;orthogonalLoop=1;jettySize=auto;html=1;strokeColor=#FF3333;" parent="WIyWlLk6GJQsqaUBKTNV-1" source="hfUMV4JjxT8LaMkukJHo-60" target="hfUMV4JjxT8LaMkukJHo-63" edge="1">
          <mxGeometry relative="1" as="geometry" />
        </mxCell>
        <mxCell id="hfUMV4JjxT8LaMkukJHo-80" style="edgeStyle=orthogonalEdgeStyle;rounded=0;orthogonalLoop=1;jettySize=auto;html=1;entryX=0;entryY=0.5;entryDx=0;entryDy=0;strokeColor=#FF3333;" parent="WIyWlLk6GJQsqaUBKTNV-1" source="hfUMV4JjxT8LaMkukJHo-60" target="hfUMV4JjxT8LaMkukJHo-52" edge="1">
          <mxGeometry relative="1" as="geometry">
            <Array as="points">
              <mxPoint x="580" y="860" />
              <mxPoint x="580" y="580" />
            </Array>
          </mxGeometry>
        </mxCell>
        <mxCell id="hfUMV4JjxT8LaMkukJHo-60" value="구독하기" style="rhombus;whiteSpace=wrap;html=1;" parent="WIyWlLk6GJQsqaUBKTNV-1" vertex="1">
          <mxGeometry x="702" y="820" width="96" height="80" as="geometry" />
        </mxCell>
        <mxCell id="hfUMV4JjxT8LaMkukJHo-62" value="NO" style="text;html=1;strokeColor=default;fillColor=none;align=center;verticalAlign=middle;whiteSpace=wrap;rounded=0;" parent="WIyWlLk6GJQsqaUBKTNV-1" vertex="1">
          <mxGeometry x="630" y="820" width="60" height="30" as="geometry" />
        </mxCell>
        <mxCell id="hfUMV4JjxT8LaMkukJHo-68" value="" style="edgeStyle=orthogonalEdgeStyle;rounded=0;orthogonalLoop=1;jettySize=auto;html=1;" parent="WIyWlLk6GJQsqaUBKTNV-1" source="hfUMV4JjxT8LaMkukJHo-63" target="hfUMV4JjxT8LaMkukJHo-67" edge="1">
          <mxGeometry relative="1" as="geometry" />
        </mxCell>
        <mxCell id="hfUMV4JjxT8LaMkukJHo-63" value="배송 상세정보 입력" style="rounded=1;whiteSpace=wrap;html=1;" parent="WIyWlLk6GJQsqaUBKTNV-1" vertex="1">
          <mxGeometry x="690" y="990" width="120" height="60" as="geometry" />
        </mxCell>
        <mxCell id="hfUMV4JjxT8LaMkukJHo-66" value="YES" style="text;html=1;strokeColor=default;fillColor=none;align=center;verticalAlign=middle;whiteSpace=wrap;rounded=0;" parent="WIyWlLk6GJQsqaUBKTNV-1" vertex="1">
          <mxGeometry x="680" y="920" width="60" height="30" as="geometry" />
        </mxCell>
        <mxCell id="3d2tBKjzDwxo3XAQTUSo-102" value="" style="edgeStyle=orthogonalEdgeStyle;rounded=0;orthogonalLoop=1;jettySize=auto;html=1;" parent="WIyWlLk6GJQsqaUBKTNV-1" source="hfUMV4JjxT8LaMkukJHo-67" target="3d2tBKjzDwxo3XAQTUSo-101" edge="1">
          <mxGeometry relative="1" as="geometry" />
        </mxCell>
        <mxCell id="hfUMV4JjxT8LaMkukJHo-67" value="결제 상세정보 입력" style="whiteSpace=wrap;html=1;rounded=1;" parent="WIyWlLk6GJQsqaUBKTNV-1" vertex="1">
          <mxGeometry x="690" y="1130" width="120" height="60" as="geometry" />
        </mxCell>
        <mxCell id="hfUMV4JjxT8LaMkukJHo-71" value="상품 구매시&amp;nbsp;&lt;br&gt;해당 상품은 기본으로 제공 되는 배송 상품이 있기 때문에 수거에 필요한 물품을 준수하여 수거 신청을 해야 수거한다는 내용 고지" style="text;html=1;strokeColor=#FF3333;fillColor=#FFFF33;align=center;verticalAlign=middle;whiteSpace=wrap;rounded=0;sketch=1;curveFitting=1;jiggle=2;" parent="WIyWlLk6GJQsqaUBKTNV-1" vertex="1">
          <mxGeometry x="990" y="505" width="240" height="150" as="geometry" />
        </mxCell>
        <mxCell id="hfUMV4JjxT8LaMkukJHo-105" value="" style="edgeStyle=orthogonalEdgeStyle;rounded=0;orthogonalLoop=1;jettySize=auto;html=1;" parent="WIyWlLk6GJQsqaUBKTNV-1" source="hfUMV4JjxT8LaMkukJHo-83" target="hfUMV4JjxT8LaMkukJHo-104" edge="1">
          <mxGeometry relative="1" as="geometry" />
        </mxCell>
        <mxCell id="hfUMV4JjxT8LaMkukJHo-83" value="로그인" style="ellipse;whiteSpace=wrap;html=1;" parent="WIyWlLk6GJQsqaUBKTNV-1" vertex="1">
          <mxGeometry x="1890" y="-70" width="120" height="80" as="geometry" />
        </mxCell>
        <mxCell id="hfUMV4JjxT8LaMkukJHo-98" value="모래수거 흐름도" style="shape=process;whiteSpace=wrap;html=1;backgroundOutline=1;size=0;" parent="WIyWlLk6GJQsqaUBKTNV-1" vertex="1">
          <mxGeometry x="10" y="-130" width="3250" height="30" as="geometry" />
        </mxCell>
        <mxCell id="hfUMV4JjxT8LaMkukJHo-99" value="사용자 구매 및 사용 관점" style="shape=process;whiteSpace=wrap;html=1;backgroundOutline=1;size=0;" parent="WIyWlLk6GJQsqaUBKTNV-1" vertex="1">
          <mxGeometry x="10" y="-100" width="1230" height="30" as="geometry" />
        </mxCell>
        <mxCell id="hfUMV4JjxT8LaMkukJHo-102" value="" style="endArrow=none;html=1;rounded=0;" parent="WIyWlLk6GJQsqaUBKTNV-1" source="hfUMV4JjxT8LaMkukJHo-303" edge="1">
          <mxGeometry width="50" height="50" relative="1" as="geometry">
            <mxPoint x="1240" y="1940" as="sourcePoint" />
            <mxPoint x="1240" y="-70" as="targetPoint" />
          </mxGeometry>
        </mxCell>
        <mxCell id="hfUMV4JjxT8LaMkukJHo-103" value="&amp;nbsp;운영자 관점" style="shape=process;whiteSpace=wrap;html=1;backgroundOutline=1;size=0;" parent="WIyWlLk6GJQsqaUBKTNV-1" vertex="1">
          <mxGeometry x="1240" y="-100" width="1380" height="30" as="geometry" />
        </mxCell>
        <mxCell id="3d2tBKjzDwxo3XAQTUSo-72" style="edgeStyle=orthogonalEdgeStyle;rounded=0;orthogonalLoop=1;jettySize=auto;html=1;entryX=0.5;entryY=0;entryDx=0;entryDy=0;" parent="WIyWlLk6GJQsqaUBKTNV-1" source="hfUMV4JjxT8LaMkukJHo-104" target="3d2tBKjzDwxo3XAQTUSo-36" edge="1">
          <mxGeometry relative="1" as="geometry" />
        </mxCell>
        <mxCell id="hfUMV4JjxT8LaMkukJHo-104" value="주문 관리" style="rounded=1;whiteSpace=wrap;html=1;" parent="WIyWlLk6GJQsqaUBKTNV-1" vertex="1">
          <mxGeometry x="1890" y="60" width="120" height="60" as="geometry" />
        </mxCell>
        <mxCell id="3d2tBKjzDwxo3XAQTUSo-115" style="edgeStyle=orthogonalEdgeStyle;rounded=0;orthogonalLoop=1;jettySize=auto;html=1;entryX=0.5;entryY=0;entryDx=0;entryDy=0;" parent="WIyWlLk6GJQsqaUBKTNV-1" source="hfUMV4JjxT8LaMkukJHo-106" target="hfUMV4JjxT8LaMkukJHo-312" edge="1">
          <mxGeometry relative="1" as="geometry" />
        </mxCell>
        <mxCell id="hfUMV4JjxT8LaMkukJHo-106" value="모래수거 요청지" style="whiteSpace=wrap;html=1;rounded=1;" parent="WIyWlLk6GJQsqaUBKTNV-1" vertex="1">
          <mxGeometry x="1700" y="1000" width="120" height="60" as="geometry" />
        </mxCell>
        <mxCell id="hfUMV4JjxT8LaMkukJHo-299" value="Use" style="endArrow=open;endSize=12;dashed=1;html=1;rounded=0;entryX=1;entryY=0.5;entryDx=0;entryDy=0;exitX=0;exitY=0.5;exitDx=0;exitDy=0;" parent="WIyWlLk6GJQsqaUBKTNV-1" source="hfUMV4JjxT8LaMkukJHo-303" target="hfUMV4JjxT8LaMkukJHo-22" edge="1">
          <mxGeometry x="-0.4625" y="-4" width="160" relative="1" as="geometry">
            <mxPoint x="1080" y="1330" as="sourcePoint" />
            <mxPoint x="630" y="1333" as="targetPoint" />
            <mxPoint as="offset" />
            <Array as="points">
              <mxPoint x="1060" y="1250" />
            </Array>
          </mxGeometry>
        </mxCell>
        <mxCell id="hfUMV4JjxT8LaMkukJHo-300" value="Text" style="edgeLabel;html=1;align=center;verticalAlign=middle;resizable=0;points=[];" parent="hfUMV4JjxT8LaMkukJHo-299" vertex="1" connectable="0">
          <mxGeometry x="-0.7307" y="-3" relative="1" as="geometry">
            <mxPoint x="72" as="offset" />
          </mxGeometry>
        </mxCell>
        <mxCell id="hfUMV4JjxT8LaMkukJHo-301" value="Use" style="endArrow=open;endSize=12;dashed=1;html=1;rounded=0;entryX=0;entryY=0.5;entryDx=0;entryDy=0;exitX=1;exitY=0.5;exitDx=0;exitDy=0;" parent="WIyWlLk6GJQsqaUBKTNV-1" source="hfUMV4JjxT8LaMkukJHo-303" target="hfUMV4JjxT8LaMkukJHo-106" edge="1">
          <mxGeometry x="-0.4625" y="-4" width="160" relative="1" as="geometry">
            <mxPoint x="1270" y="1130" as="sourcePoint" />
            <mxPoint x="1680" y="1150" as="targetPoint" />
            <mxPoint as="offset" />
          </mxGeometry>
        </mxCell>
        <mxCell id="hfUMV4JjxT8LaMkukJHo-304" value="수거 완료에 대한 처리는 현재 사용자가&lt;br&gt;기능상 확인 할 수 없다&lt;br&gt;(문 앞에 뒀는데 수거일이 지나도 계속 있으면)&lt;br&gt;&lt;br&gt;&lt;br&gt;&lt;br&gt;&lt;br&gt;* 미수거시 사이트내 고객센터 문의&lt;br&gt;" style="text;html=1;strokeColor=#FF3333;fillColor=#FFFF33;align=center;verticalAlign=middle;whiteSpace=wrap;rounded=0;sketch=1;curveFitting=1;jiggle=2;" parent="WIyWlLk6GJQsqaUBKTNV-1" vertex="1">
          <mxGeometry x="860" y="1430" width="250" height="180" as="geometry" />
        </mxCell>
        <mxCell id="3d2tBKjzDwxo3XAQTUSo-127" value="" style="edgeStyle=orthogonalEdgeStyle;rounded=0;orthogonalLoop=1;jettySize=auto;html=1;" parent="WIyWlLk6GJQsqaUBKTNV-1" source="hfUMV4JjxT8LaMkukJHo-305" target="3d2tBKjzDwxo3XAQTUSo-126" edge="1">
          <mxGeometry relative="1" as="geometry" />
        </mxCell>
        <mxCell id="hfUMV4JjxT8LaMkukJHo-305" value="수거지 명단 확인&lt;br&gt;엑셀 다운로드" style="shape=document;whiteSpace=wrap;html=1;boundedLbl=1;" parent="WIyWlLk6GJQsqaUBKTNV-1" vertex="1">
          <mxGeometry x="1620" y="1315" width="120" height="80" as="geometry" />
        </mxCell>
        <mxCell id="hfUMV4JjxT8LaMkukJHo-308" value="수거기사" style="shape=process;whiteSpace=wrap;html=1;backgroundOutline=1;size=0;" parent="WIyWlLk6GJQsqaUBKTNV-1" vertex="1">
          <mxGeometry x="2620" y="-100" width="640" height="30" as="geometry" />
        </mxCell>
        <mxCell id="3d2tBKjzDwxo3XAQTUSo-116" style="edgeStyle=orthogonalEdgeStyle;rounded=0;orthogonalLoop=1;jettySize=auto;html=1;entryX=0.5;entryY=0;entryDx=0;entryDy=0;" parent="WIyWlLk6GJQsqaUBKTNV-1" source="hfUMV4JjxT8LaMkukJHo-312" target="3d2tBKjzDwxo3XAQTUSo-114" edge="1">
          <mxGeometry relative="1" as="geometry" />
        </mxCell>
        <mxCell id="hfUMV4JjxT8LaMkukJHo-312" value="수거 정보 확인" style="rhombus;whiteSpace=wrap;html=1;" parent="WIyWlLk6GJQsqaUBKTNV-1" vertex="1">
          <mxGeometry x="1712" y="1110" width="96" height="80" as="geometry" />
        </mxCell>
        <mxCell id="hfUMV4JjxT8LaMkukJHo-320" value="미수거 시 수거 고객과의 전화통화 후 미수거 사유 확인 후 복구 결정" style="text;html=1;strokeColor=#FF3333;fillColor=#FFFF33;align=center;verticalAlign=middle;whiteSpace=wrap;rounded=0;sketch=1;curveFitting=1;jiggle=2;" parent="WIyWlLk6GJQsqaUBKTNV-1" vertex="1">
          <mxGeometry x="1270" y="1540" width="240" height="150" as="geometry" />
        </mxCell>
        <mxCell id="hfUMV4JjxT8LaMkukJHo-334" value="NO" style="text;html=1;strokeColor=default;fillColor=none;align=center;verticalAlign=middle;whiteSpace=wrap;rounded=0;" parent="WIyWlLk6GJQsqaUBKTNV-1" vertex="1">
          <mxGeometry x="1390" y="1400" width="60" height="30" as="geometry" />
        </mxCell>
        <mxCell id="hfUMV4JjxT8LaMkukJHo-335" value="복구" style="ellipse;whiteSpace=wrap;html=1;" parent="WIyWlLk6GJQsqaUBKTNV-1" vertex="1">
          <mxGeometry x="1270" y="1300" width="80" height="80" as="geometry" />
        </mxCell>
        <mxCell id="hfUMV4JjxT8LaMkukJHo-340" value="Use" style="endArrow=open;endSize=12;dashed=1;html=1;rounded=0;exitX=0;exitY=0.5;exitDx=0;exitDy=0;entryX=1;entryY=0.5;entryDx=0;entryDy=0;" parent="WIyWlLk6GJQsqaUBKTNV-1" source="hfUMV4JjxT8LaMkukJHo-342" target="3d2tBKjzDwxo3XAQTUSo-126" edge="1">
          <mxGeometry x="-0.4625" y="-4" width="160" relative="1" as="geometry">
            <mxPoint x="2060" y="1360" as="sourcePoint" />
            <mxPoint x="2140" y="1230" as="targetPoint" />
            <mxPoint as="offset" />
          </mxGeometry>
        </mxCell>
        <mxCell id="hfUMV4JjxT8LaMkukJHo-351" value="" style="edgeStyle=orthogonalEdgeStyle;rounded=0;orthogonalLoop=1;jettySize=auto;html=1;" parent="WIyWlLk6GJQsqaUBKTNV-1" target="hfUMV4JjxT8LaMkukJHo-350" edge="1">
          <mxGeometry relative="1" as="geometry">
            <mxPoint x="3056" y="1115" as="sourcePoint" />
          </mxGeometry>
        </mxCell>
        <mxCell id="hfUMV4JjxT8LaMkukJHo-355" style="edgeStyle=orthogonalEdgeStyle;rounded=0;orthogonalLoop=1;jettySize=auto;html=1;entryX=0.5;entryY=0;entryDx=0;entryDy=0;" parent="WIyWlLk6GJQsqaUBKTNV-1" source="hfUMV4JjxT8LaMkukJHo-350" target="hfUMV4JjxT8LaMkukJHo-354" edge="1">
          <mxGeometry relative="1" as="geometry" />
        </mxCell>
        <mxCell id="hfUMV4JjxT8LaMkukJHo-350" value="수거지 방문" style="rounded=1;whiteSpace=wrap;html=1;fillColor=#dae8fc;strokeColor=#6c8ebf;" parent="WIyWlLk6GJQsqaUBKTNV-1" vertex="1">
          <mxGeometry x="2996" y="1195" width="120" height="60" as="geometry" />
        </mxCell>
        <mxCell id="hfUMV4JjxT8LaMkukJHo-365" value="" style="edgeStyle=orthogonalEdgeStyle;rounded=0;orthogonalLoop=1;jettySize=auto;html=1;strokeColor=#FF3333;" parent="WIyWlLk6GJQsqaUBKTNV-1" source="hfUMV4JjxT8LaMkukJHo-354" target="hfUMV4JjxT8LaMkukJHo-364" edge="1">
          <mxGeometry relative="1" as="geometry" />
        </mxCell>
        <mxCell id="hfUMV4JjxT8LaMkukJHo-367" value="" style="edgeStyle=orthogonalEdgeStyle;rounded=0;orthogonalLoop=1;jettySize=auto;html=1;strokeColor=#FF3333;" parent="WIyWlLk6GJQsqaUBKTNV-1" source="hfUMV4JjxT8LaMkukJHo-354" edge="1">
          <mxGeometry relative="1" as="geometry">
            <mxPoint x="2940" y="1360" as="targetPoint" />
          </mxGeometry>
        </mxCell>
        <mxCell id="hfUMV4JjxT8LaMkukJHo-354" value="수거 가능&lt;br&gt;여부 확인" style="rhombus;whiteSpace=wrap;html=1;fillColor=#dae8fc;strokeColor=#6c8ebf;" parent="WIyWlLk6GJQsqaUBKTNV-1" vertex="1">
          <mxGeometry x="3008" y="1320" width="96" height="80" as="geometry" />
        </mxCell>
        <mxCell id="hfUMV4JjxT8LaMkukJHo-372" style="edgeStyle=orthogonalEdgeStyle;rounded=0;orthogonalLoop=1;jettySize=auto;html=1;entryX=0.5;entryY=0;entryDx=0;entryDy=0;" parent="WIyWlLk6GJQsqaUBKTNV-1" target="hfUMV4JjxT8LaMkukJHo-362" edge="1">
          <mxGeometry relative="1" as="geometry">
            <mxPoint x="3056.000000000001" y="1740" as="sourcePoint" />
          </mxGeometry>
        </mxCell>
        <mxCell id="hfUMV4JjxT8LaMkukJHo-358" value="" style="whiteSpace=wrap;html=1;rounded=0;shadow=0;comic=0;labelBackgroundColor=none;strokeWidth=1;fillColor=#000000;fontFamily=Verdana;fontSize=12;align=center;rotation=0;" parent="WIyWlLk6GJQsqaUBKTNV-1" vertex="1">
          <mxGeometry x="2940" y="1730" width="240" height="10" as="geometry" />
        </mxCell>
        <mxCell id="hfUMV4JjxT8LaMkukJHo-359" value="수거자 명단 확인" style="ellipse;whiteSpace=wrap;html=1;fillColor=#dae8fc;strokeColor=#6c8ebf;" parent="WIyWlLk6GJQsqaUBKTNV-1" vertex="1">
          <mxGeometry x="2996" y="1045" width="120" height="80" as="geometry" />
        </mxCell>
        <mxCell id="hfUMV4JjxT8LaMkukJHo-360" value="" style="endArrow=none;html=1;rounded=0;" parent="WIyWlLk6GJQsqaUBKTNV-1" source="hfUMV4JjxT8LaMkukJHo-378" edge="1">
          <mxGeometry width="50" height="50" relative="1" as="geometry">
            <mxPoint x="2620" y="2274" as="sourcePoint" />
            <mxPoint x="2620" y="-80" as="targetPoint" />
          </mxGeometry>
        </mxCell>
        <mxCell id="hfUMV4JjxT8LaMkukJHo-361" value="Use" style="endArrow=open;endSize=12;dashed=1;html=1;rounded=0;entryX=0;entryY=0.5;entryDx=0;entryDy=0;exitX=1;exitY=0.5;exitDx=0;exitDy=0;" parent="WIyWlLk6GJQsqaUBKTNV-1" source="hfUMV4JjxT8LaMkukJHo-342" target="hfUMV4JjxT8LaMkukJHo-359" edge="1">
          <mxGeometry x="-0.4625" y="-4" width="160" relative="1" as="geometry">
            <mxPoint x="2990" y="1350" as="sourcePoint" />
            <mxPoint x="2720" y="1370" as="targetPoint" />
            <mxPoint as="offset" />
          </mxGeometry>
        </mxCell>
        <mxCell id="hfUMV4JjxT8LaMkukJHo-362" value="관리자에게 수거 명단 전달" style="ellipse;whiteSpace=wrap;html=1;fillColor=#dae8fc;strokeColor=#6c8ebf;" parent="WIyWlLk6GJQsqaUBKTNV-1" vertex="1">
          <mxGeometry x="2996" y="1780" width="120" height="80" as="geometry" />
        </mxCell>
        <mxCell id="hfUMV4JjxT8LaMkukJHo-369" value="" style="edgeStyle=orthogonalEdgeStyle;rounded=0;orthogonalLoop=1;jettySize=auto;html=1;" parent="WIyWlLk6GJQsqaUBKTNV-1" source="hfUMV4JjxT8LaMkukJHo-364" target="hfUMV4JjxT8LaMkukJHo-368" edge="1">
          <mxGeometry relative="1" as="geometry" />
        </mxCell>
        <mxCell id="hfUMV4JjxT8LaMkukJHo-364" value="수거" style="rounded=1;whiteSpace=wrap;html=1;fillColor=#dae8fc;strokeColor=#6c8ebf;" parent="WIyWlLk6GJQsqaUBKTNV-1" vertex="1">
          <mxGeometry x="2996" y="1490" width="120" height="60" as="geometry" />
        </mxCell>
        <mxCell id="hfUMV4JjxT8LaMkukJHo-373" style="edgeStyle=orthogonalEdgeStyle;rounded=0;orthogonalLoop=1;jettySize=auto;html=1;entryX=0.5;entryY=0;entryDx=0;entryDy=0;" parent="WIyWlLk6GJQsqaUBKTNV-1" edge="1">
          <mxGeometry relative="1" as="geometry">
            <mxPoint x="2880" y="1390" as="sourcePoint" />
            <Array as="points">
              <mxPoint x="2880" y="1700" />
              <mxPoint x="3056" y="1700" />
            </Array>
            <mxPoint x="3056.000000000001" y="1730" as="targetPoint" />
          </mxGeometry>
        </mxCell>
        <mxCell id="hfUMV4JjxT8LaMkukJHo-366" value="해당 사용자 &lt;br&gt;미수거 체크" style="rounded=1;whiteSpace=wrap;html=1;fillColor=#dae8fc;strokeColor=#6c8ebf;" parent="WIyWlLk6GJQsqaUBKTNV-1" vertex="1">
          <mxGeometry x="2820" y="1330" width="120" height="60" as="geometry" />
        </mxCell>
        <mxCell id="hfUMV4JjxT8LaMkukJHo-371" style="edgeStyle=orthogonalEdgeStyle;rounded=0;orthogonalLoop=1;jettySize=auto;html=1;entryX=0.5;entryY=0;entryDx=0;entryDy=0;" parent="WIyWlLk6GJQsqaUBKTNV-1" source="hfUMV4JjxT8LaMkukJHo-368" edge="1">
          <mxGeometry relative="1" as="geometry">
            <mxPoint x="3056.000000000001" y="1730" as="targetPoint" />
          </mxGeometry>
        </mxCell>
        <mxCell id="hfUMV4JjxT8LaMkukJHo-368" value="해당 사용자&lt;br&gt;수거 체크" style="rounded=1;whiteSpace=wrap;html=1;fillColor=#dae8fc;strokeColor=#6c8ebf;" parent="WIyWlLk6GJQsqaUBKTNV-1" vertex="1">
          <mxGeometry x="2996" y="1630" width="120" height="60" as="geometry" />
        </mxCell>
        <mxCell id="hfUMV4JjxT8LaMkukJHo-377" value="Use" style="endArrow=open;endSize=12;dashed=1;html=1;rounded=0;exitX=0;exitY=0.5;exitDx=0;exitDy=0;" parent="WIyWlLk6GJQsqaUBKTNV-1" source="hfUMV4JjxT8LaMkukJHo-378" edge="1">
          <mxGeometry x="-0.4625" y="-4" width="160" relative="1" as="geometry">
            <mxPoint x="1930" y="1650" as="sourcePoint" />
            <mxPoint x="1810" y="1170" as="targetPoint" />
            <mxPoint as="offset" />
          </mxGeometry>
        </mxCell>
        <mxCell id="hfUMV4JjxT8LaMkukJHo-379" value="Use" style="endArrow=open;endSize=12;dashed=1;html=1;rounded=0;entryX=0;entryY=0.5;entryDx=0;entryDy=0;exitX=1;exitY=0.5;exitDx=0;exitDy=0;" parent="WIyWlLk6GJQsqaUBKTNV-1" source="hfUMV4JjxT8LaMkukJHo-378" target="hfUMV4JjxT8LaMkukJHo-362" edge="1">
          <mxGeometry x="-0.4625" y="-4" width="160" relative="1" as="geometry">
            <mxPoint x="2762" y="1790" as="sourcePoint" />
            <mxPoint x="2500" y="1660" as="targetPoint" />
            <mxPoint as="offset" />
          </mxGeometry>
        </mxCell>
        <mxCell id="hfUMV4JjxT8LaMkukJHo-342" value="수거지 명단 정보" style="rounded=0;whiteSpace=wrap;html=1;fillColor=#fff2cc;strokeColor=#d6b656;" parent="WIyWlLk6GJQsqaUBKTNV-1" vertex="1">
          <mxGeometry x="2570" y="1180" width="120" height="40" as="geometry" />
        </mxCell>
        <mxCell id="3d2tBKjzDwxo3XAQTUSo-11" style="edgeStyle=orthogonalEdgeStyle;rounded=0;orthogonalLoop=1;jettySize=auto;html=1;" parent="WIyWlLk6GJQsqaUBKTNV-1" source="3d2tBKjzDwxo3XAQTUSo-0" target="3d2tBKjzDwxo3XAQTUSo-9" edge="1">
          <mxGeometry relative="1" as="geometry" />
        </mxCell>
        <mxCell id="3d2tBKjzDwxo3XAQTUSo-0" value="" style="whiteSpace=wrap;html=1;rounded=0;shadow=0;comic=0;labelBackgroundColor=none;strokeWidth=1;fillColor=#000000;fontFamily=Verdana;fontSize=12;align=center;rotation=0;" parent="WIyWlLk6GJQsqaUBKTNV-1" vertex="1">
          <mxGeometry x="120.00000000000006" y="550" width="240" height="10" as="geometry" />
        </mxCell>
        <mxCell id="3d2tBKjzDwxo3XAQTUSo-6" style="edgeStyle=orthogonalEdgeStyle;rounded=0;orthogonalLoop=1;jettySize=auto;html=1;entryX=0.552;entryY=0.847;entryDx=0;entryDy=0;entryPerimeter=0;" parent="WIyWlLk6GJQsqaUBKTNV-1" source="hfUMV4JjxT8LaMkukJHo-27" target="hfUMV4JjxT8LaMkukJHo-33" edge="1">
          <mxGeometry relative="1" as="geometry">
            <Array as="points">
              <mxPoint x="-330" y="1200" />
              <mxPoint x="-137" y="1200" />
            </Array>
          </mxGeometry>
        </mxCell>
        <mxCell id="3d2tBKjzDwxo3XAQTUSo-10" style="edgeStyle=orthogonalEdgeStyle;rounded=0;orthogonalLoop=1;jettySize=auto;html=1;entryX=0.5;entryY=0;entryDx=0;entryDy=0;strokeColor=#FF3333;" parent="WIyWlLk6GJQsqaUBKTNV-1" source="3d2tBKjzDwxo3XAQTUSo-9" target="hfUMV4JjxT8LaMkukJHo-15" edge="1">
          <mxGeometry relative="1" as="geometry">
            <Array as="points">
              <mxPoint x="240" y="700" />
              <mxPoint x="-62" y="700" />
            </Array>
          </mxGeometry>
        </mxCell>
        <mxCell id="3d2tBKjzDwxo3XAQTUSo-17" style="edgeStyle=orthogonalEdgeStyle;rounded=0;orthogonalLoop=1;jettySize=auto;html=1;strokeColor=#FF3333;" parent="WIyWlLk6GJQsqaUBKTNV-1" source="3d2tBKjzDwxo3XAQTUSo-9" target="3d2tBKjzDwxo3XAQTUSo-15" edge="1">
          <mxGeometry relative="1" as="geometry">
            <Array as="points">
              <mxPoint x="240" y="700" />
              <mxPoint x="390" y="700" />
            </Array>
          </mxGeometry>
        </mxCell>
        <mxCell id="3d2tBKjzDwxo3XAQTUSo-9" value="수거 신청&lt;br&gt;가능/ 불가능" style="rhombus;whiteSpace=wrap;html=1;rounded=1;" parent="WIyWlLk6GJQsqaUBKTNV-1" vertex="1">
          <mxGeometry x="190" y="590" width="100" height="80" as="geometry" />
        </mxCell>
        <mxCell id="3d2tBKjzDwxo3XAQTUSo-20" style="edgeStyle=orthogonalEdgeStyle;rounded=0;orthogonalLoop=1;jettySize=auto;html=1;strokeColor=#FF3333;" parent="WIyWlLk6GJQsqaUBKTNV-1" source="3d2tBKjzDwxo3XAQTUSo-15" edge="1">
          <mxGeometry relative="1" as="geometry">
            <mxPoint x="290" y="880" as="targetPoint" />
            <Array as="points">
              <mxPoint x="390" y="850" />
              <mxPoint x="291" y="850" />
              <mxPoint x="291" y="880" />
            </Array>
          </mxGeometry>
        </mxCell>
        <mxCell id="3d2tBKjzDwxo3XAQTUSo-21" style="edgeStyle=orthogonalEdgeStyle;rounded=0;orthogonalLoop=1;jettySize=auto;html=1;strokeColor=#FF3333;" parent="WIyWlLk6GJQsqaUBKTNV-1" source="3d2tBKjzDwxo3XAQTUSo-15" target="3d2tBKjzDwxo3XAQTUSo-19" edge="1">
          <mxGeometry relative="1" as="geometry" />
        </mxCell>
        <mxCell id="3d2tBKjzDwxo3XAQTUSo-15" value="정기결제 여부" style="rhombus;whiteSpace=wrap;html=1;rounded=1;" parent="WIyWlLk6GJQsqaUBKTNV-1" vertex="1">
          <mxGeometry x="340" y="740" width="100" height="80" as="geometry" />
        </mxCell>
        <mxCell id="3d2tBKjzDwxo3XAQTUSo-25" value="" style="edgeStyle=orthogonalEdgeStyle;rounded=0;orthogonalLoop=1;jettySize=auto;html=1;" parent="WIyWlLk6GJQsqaUBKTNV-1" source="3d2tBKjzDwxo3XAQTUSo-19" target="3d2tBKjzDwxo3XAQTUSo-24" edge="1">
          <mxGeometry relative="1" as="geometry" />
        </mxCell>
        <mxCell id="3d2tBKjzDwxo3XAQTUSo-19" value="해지" style="rounded=1;whiteSpace=wrap;html=1;" parent="WIyWlLk6GJQsqaUBKTNV-1" vertex="1">
          <mxGeometry x="430" y="880" width="120" height="60" as="geometry" />
        </mxCell>
        <mxCell id="3d2tBKjzDwxo3XAQTUSo-27" value="" style="edgeStyle=orthogonalEdgeStyle;rounded=0;orthogonalLoop=1;jettySize=auto;html=1;" parent="WIyWlLk6GJQsqaUBKTNV-1" source="3d2tBKjzDwxo3XAQTUSo-24" target="3d2tBKjzDwxo3XAQTUSo-26" edge="1">
          <mxGeometry relative="1" as="geometry" />
        </mxCell>
        <mxCell id="3d2tBKjzDwxo3XAQTUSo-24" value="해지 사유 작성" style="whiteSpace=wrap;html=1;rounded=1;" parent="WIyWlLk6GJQsqaUBKTNV-1" vertex="1">
          <mxGeometry x="430" y="1055" width="120" height="60" as="geometry" />
        </mxCell>
        <mxCell id="3d2tBKjzDwxo3XAQTUSo-26" value="해지 신청 &lt;br&gt;완료" style="ellipse;whiteSpace=wrap;html=1;rounded=1;" parent="WIyWlLk6GJQsqaUBKTNV-1" vertex="1">
          <mxGeometry x="450" y="1245" width="80" height="80" as="geometry" />
        </mxCell>
        <mxCell id="3d2tBKjzDwxo3XAQTUSo-28" value="유지" style="ellipse;whiteSpace=wrap;html=1;aspect=fixed;" parent="WIyWlLk6GJQsqaUBKTNV-1" vertex="1">
          <mxGeometry x="250" y="880" width="80" height="80" as="geometry" />
        </mxCell>
        <mxCell id="3d2tBKjzDwxo3XAQTUSo-31" value="" style="endArrow=none;html=1;rounded=0;" parent="WIyWlLk6GJQsqaUBKTNV-1" edge="1">
          <mxGeometry width="50" height="50" relative="1" as="geometry">
            <mxPoint x="3260" y="2274" as="sourcePoint" />
            <mxPoint x="3260" y="-80" as="targetPoint" />
          </mxGeometry>
        </mxCell>
        <mxCell id="3d2tBKjzDwxo3XAQTUSo-48" style="edgeStyle=orthogonalEdgeStyle;rounded=0;orthogonalLoop=1;jettySize=auto;html=1;" parent="WIyWlLk6GJQsqaUBKTNV-1" source="3d2tBKjzDwxo3XAQTUSo-36" target="hfUMV4JjxT8LaMkukJHo-106" edge="1">
          <mxGeometry relative="1" as="geometry">
            <Array as="points">
              <mxPoint x="1950" y="330" />
              <mxPoint x="1760" y="330" />
            </Array>
          </mxGeometry>
        </mxCell>
        <mxCell id="3d2tBKjzDwxo3XAQTUSo-50" style="edgeStyle=orthogonalEdgeStyle;rounded=0;orthogonalLoop=1;jettySize=auto;html=1;" parent="WIyWlLk6GJQsqaUBKTNV-1" source="3d2tBKjzDwxo3XAQTUSo-36" target="3d2tBKjzDwxo3XAQTUSo-42" edge="1">
          <mxGeometry relative="1" as="geometry">
            <Array as="points">
              <mxPoint x="1950" y="330" />
              <mxPoint x="2170" y="330" />
            </Array>
          </mxGeometry>
        </mxCell>
        <mxCell id="3d2tBKjzDwxo3XAQTUSo-36" value="" style="whiteSpace=wrap;html=1;rounded=0;shadow=0;comic=0;labelBackgroundColor=none;strokeWidth=1;fillColor=#000000;fontFamily=Verdana;fontSize=12;align=center;rotation=0;" parent="WIyWlLk6GJQsqaUBKTNV-1" vertex="1">
          <mxGeometry x="1830" y="230" width="240" height="10" as="geometry" />
        </mxCell>
        <mxCell id="3d2tBKjzDwxo3XAQTUSo-55" value="" style="edgeStyle=orthogonalEdgeStyle;rounded=0;orthogonalLoop=1;jettySize=auto;html=1;" parent="WIyWlLk6GJQsqaUBKTNV-1" source="3d2tBKjzDwxo3XAQTUSo-42" target="3d2tBKjzDwxo3XAQTUSo-54" edge="1">
          <mxGeometry relative="1" as="geometry" />
        </mxCell>
        <mxCell id="3d2tBKjzDwxo3XAQTUSo-42" value="주문 취소 리스트" style="rounded=1;whiteSpace=wrap;html=1;" parent="WIyWlLk6GJQsqaUBKTNV-1" vertex="1">
          <mxGeometry x="2080" y="450" width="120" height="60" as="geometry" />
        </mxCell>
        <mxCell id="3d2tBKjzDwxo3XAQTUSo-43" value="Use" style="endArrow=open;endSize=12;dashed=1;html=1;rounded=0;entryX=1;entryY=0.5;entryDx=0;entryDy=0;exitX=0;exitY=0.5;exitDx=0;exitDy=0;" parent="WIyWlLk6GJQsqaUBKTNV-1" source="3d2tBKjzDwxo3XAQTUSo-45" edge="1">
          <mxGeometry x="-0.4625" y="-4" width="160" relative="1" as="geometry">
            <mxPoint x="1200" y="800" as="sourcePoint" />
            <mxPoint x="530" y="1290" as="targetPoint" />
            <mxPoint as="offset" />
            <Array as="points">
              <mxPoint x="990" y="1180" />
            </Array>
          </mxGeometry>
        </mxCell>
        <mxCell id="3d2tBKjzDwxo3XAQTUSo-44" value="Text" style="edgeLabel;html=1;align=center;verticalAlign=middle;resizable=0;points=[];" parent="3d2tBKjzDwxo3XAQTUSo-43" connectable="0" vertex="1">
          <mxGeometry x="-0.7307" y="-3" relative="1" as="geometry">
            <mxPoint x="72" as="offset" />
          </mxGeometry>
        </mxCell>
        <mxCell id="3d2tBKjzDwxo3XAQTUSo-45" value="해지요청 명단 정보" style="rounded=0;whiteSpace=wrap;html=1;fillColor=#fff2cc;strokeColor=#d6b656;" parent="WIyWlLk6GJQsqaUBKTNV-1" vertex="1">
          <mxGeometry x="1180" y="755" width="120" height="40" as="geometry" />
        </mxCell>
        <mxCell id="3d2tBKjzDwxo3XAQTUSo-46" value="Use" style="endArrow=open;endSize=12;dashed=1;html=1;rounded=0;entryX=0;entryY=0.5;entryDx=0;entryDy=0;exitX=1;exitY=0.5;exitDx=0;exitDy=0;" parent="WIyWlLk6GJQsqaUBKTNV-1" source="3d2tBKjzDwxo3XAQTUSo-45" target="3d2tBKjzDwxo3XAQTUSo-42" edge="1">
          <mxGeometry x="-0.4625" y="-4" width="160" relative="1" as="geometry">
            <mxPoint x="1360" y="779.23" as="sourcePoint" />
            <mxPoint x="1690" y="779.23" as="targetPoint" />
            <mxPoint as="offset" />
          </mxGeometry>
        </mxCell>
        <mxCell id="3d2tBKjzDwxo3XAQTUSo-52" value="" style="endArrow=none;html=1;rounded=0;" parent="WIyWlLk6GJQsqaUBKTNV-1" target="hfUMV4JjxT8LaMkukJHo-378" edge="1">
          <mxGeometry width="50" height="50" relative="1" as="geometry">
            <mxPoint x="2620" y="2274" as="sourcePoint" />
            <mxPoint x="2620" y="-80" as="targetPoint" />
          </mxGeometry>
        </mxCell>
        <mxCell id="hfUMV4JjxT8LaMkukJHo-378" value="수거내역 정보" style="rounded=0;whiteSpace=wrap;html=1;fillColor=#fff2cc;strokeColor=#d6b656;" parent="WIyWlLk6GJQsqaUBKTNV-1" vertex="1">
          <mxGeometry x="2570" y="1660" width="120" height="40" as="geometry" />
        </mxCell>
        <mxCell id="3d2tBKjzDwxo3XAQTUSo-53" value="" style="endArrow=none;html=1;rounded=0;" parent="WIyWlLk6GJQsqaUBKTNV-1" target="hfUMV4JjxT8LaMkukJHo-303" edge="1">
          <mxGeometry width="50" height="50" relative="1" as="geometry">
            <mxPoint x="1240" y="1940" as="sourcePoint" />
            <mxPoint x="1240" y="-70" as="targetPoint" />
          </mxGeometry>
        </mxCell>
        <mxCell id="hfUMV4JjxT8LaMkukJHo-303" value="수거 요청 정보" style="rounded=0;whiteSpace=wrap;html=1;fillColor=#fff2cc;strokeColor=#d6b656;" parent="WIyWlLk6GJQsqaUBKTNV-1" vertex="1">
          <mxGeometry x="1180" y="1030" width="120" height="40" as="geometry" />
        </mxCell>
        <mxCell id="3d2tBKjzDwxo3XAQTUSo-57" style="edgeStyle=orthogonalEdgeStyle;rounded=0;orthogonalLoop=1;jettySize=auto;html=1;entryX=0.5;entryY=0;entryDx=0;entryDy=0;" parent="WIyWlLk6GJQsqaUBKTNV-1" source="3d2tBKjzDwxo3XAQTUSo-54" target="3d2tBKjzDwxo3XAQTUSo-56" edge="1">
          <mxGeometry relative="1" as="geometry" />
        </mxCell>
        <mxCell id="3d2tBKjzDwxo3XAQTUSo-54" value="취소사유 확인" style="whiteSpace=wrap;html=1;rounded=1;" parent="WIyWlLk6GJQsqaUBKTNV-1" vertex="1">
          <mxGeometry x="2080" y="590" width="120" height="60" as="geometry" />
        </mxCell>
        <mxCell id="3d2tBKjzDwxo3XAQTUSo-59" value="" style="edgeStyle=orthogonalEdgeStyle;rounded=0;orthogonalLoop=1;jettySize=auto;html=1;strokeColor=#FF3333;" parent="WIyWlLk6GJQsqaUBKTNV-1" source="3d2tBKjzDwxo3XAQTUSo-56" target="3d2tBKjzDwxo3XAQTUSo-60" edge="1">
          <mxGeometry relative="1" as="geometry">
            <mxPoint x="2256" y="765" as="targetPoint" />
          </mxGeometry>
        </mxCell>
        <mxCell id="3d2tBKjzDwxo3XAQTUSo-67" value="" style="edgeStyle=orthogonalEdgeStyle;rounded=0;orthogonalLoop=1;jettySize=auto;html=1;strokeColor=#FF3333;" parent="WIyWlLk6GJQsqaUBKTNV-1" source="3d2tBKjzDwxo3XAQTUSo-56" edge="1">
          <mxGeometry relative="1" as="geometry">
            <mxPoint x="2140" y="865" as="targetPoint" />
          </mxGeometry>
        </mxCell>
        <mxCell id="3d2tBKjzDwxo3XAQTUSo-56" value="수거권&amp;nbsp;&lt;br&gt;잔여" style="rhombus;whiteSpace=wrap;html=1;" parent="WIyWlLk6GJQsqaUBKTNV-1" vertex="1">
          <mxGeometry x="2092" y="725" width="96" height="80" as="geometry" />
        </mxCell>
        <mxCell id="3d2tBKjzDwxo3XAQTUSo-76" style="edgeStyle=orthogonalEdgeStyle;rounded=0;orthogonalLoop=1;jettySize=auto;html=1;entryX=1;entryY=0.5;entryDx=0;entryDy=0;" parent="WIyWlLk6GJQsqaUBKTNV-1" source="3d2tBKjzDwxo3XAQTUSo-60" target="3d2tBKjzDwxo3XAQTUSo-74" edge="1">
          <mxGeometry relative="1" as="geometry">
            <Array as="points">
              <mxPoint x="2400" y="1000" />
            </Array>
          </mxGeometry>
        </mxCell>
        <mxCell id="3d2tBKjzDwxo3XAQTUSo-60" value="환불 금액 0원&amp;nbsp;" style="ellipse;whiteSpace=wrap;html=1;aspect=fixed;" parent="WIyWlLk6GJQsqaUBKTNV-1" vertex="1">
          <mxGeometry x="2360" y="725" width="80" height="80" as="geometry" />
        </mxCell>
        <mxCell id="3d2tBKjzDwxo3XAQTUSo-61" value="환불할 금액이 없을 시 0원으로 환불 처리 하면 다음 달 예약 결제 취소" style="text;html=1;strokeColor=#FF3333;fillColor=#FFFF33;align=center;verticalAlign=middle;whiteSpace=wrap;rounded=0;sketch=1;curveFitting=1;jiggle=2;" parent="WIyWlLk6GJQsqaUBKTNV-1" vertex="1">
          <mxGeometry x="2420" y="530" width="200" height="100" as="geometry" />
        </mxCell>
        <mxCell id="3d2tBKjzDwxo3XAQTUSo-62" style="edgeStyle=orthogonalEdgeStyle;rounded=0;orthogonalLoop=1;jettySize=auto;html=1;entryX=0.602;entryY=1.001;entryDx=0;entryDy=0;entryPerimeter=0;dashed=1;fillColor=#fff2cc;strokeColor=#d6b656;" parent="WIyWlLk6GJQsqaUBKTNV-1" source="3d2tBKjzDwxo3XAQTUSo-60" target="3d2tBKjzDwxo3XAQTUSo-61" edge="1">
          <mxGeometry relative="1" as="geometry">
            <Array as="points">
              <mxPoint x="2540" y="765" />
            </Array>
          </mxGeometry>
        </mxCell>
        <mxCell id="3d2tBKjzDwxo3XAQTUSo-63" value="NO" style="text;html=1;strokeColor=default;fillColor=none;align=center;verticalAlign=middle;whiteSpace=wrap;rounded=0;" parent="WIyWlLk6GJQsqaUBKTNV-1" vertex="1">
          <mxGeometry x="2190" y="725" width="60" height="30" as="geometry" />
        </mxCell>
        <mxCell id="3d2tBKjzDwxo3XAQTUSo-75" value="" style="edgeStyle=orthogonalEdgeStyle;rounded=0;orthogonalLoop=1;jettySize=auto;html=1;" parent="WIyWlLk6GJQsqaUBKTNV-1" source="3d2tBKjzDwxo3XAQTUSo-66" target="3d2tBKjzDwxo3XAQTUSo-74" edge="1">
          <mxGeometry relative="1" as="geometry" />
        </mxCell>
        <mxCell id="3d2tBKjzDwxo3XAQTUSo-66" value="관리자가 주문번호 별 잔여 수거권 환불금액 판단" style="rounded=1;whiteSpace=wrap;html=1;" parent="WIyWlLk6GJQsqaUBKTNV-1" vertex="1">
          <mxGeometry x="2080" y="870" width="120" height="60" as="geometry" />
        </mxCell>
        <mxCell id="3d2tBKjzDwxo3XAQTUSo-69" value="수거 확인 &lt;br&gt;체크" style="ellipse;whiteSpace=wrap;html=1;aspect=fixed;" parent="WIyWlLk6GJQsqaUBKTNV-1" vertex="1">
          <mxGeometry x="1720" y="1810" width="80" height="80" as="geometry" />
        </mxCell>
        <mxCell id="3d2tBKjzDwxo3XAQTUSo-71" value="취소 완료" style="ellipse;whiteSpace=wrap;html=1;aspect=fixed;" parent="WIyWlLk6GJQsqaUBKTNV-1" vertex="1">
          <mxGeometry x="2100" y="1085" width="80" height="80" as="geometry" />
        </mxCell>
        <mxCell id="3d2tBKjzDwxo3XAQTUSo-77" style="edgeStyle=orthogonalEdgeStyle;rounded=0;orthogonalLoop=1;jettySize=auto;html=1;entryX=0.5;entryY=0;entryDx=0;entryDy=0;" parent="WIyWlLk6GJQsqaUBKTNV-1" source="3d2tBKjzDwxo3XAQTUSo-74" target="3d2tBKjzDwxo3XAQTUSo-71" edge="1">
          <mxGeometry relative="1" as="geometry" />
        </mxCell>
        <mxCell id="3d2tBKjzDwxo3XAQTUSo-74" value="환불 금액 지정하여 &lt;br&gt;환불 진행" style="whiteSpace=wrap;html=1;rounded=1;" parent="WIyWlLk6GJQsqaUBKTNV-1" vertex="1">
          <mxGeometry x="2080" y="970" width="120" height="60" as="geometry" />
        </mxCell>
        <mxCell id="3d2tBKjzDwxo3XAQTUSo-78" value="모래수거 명단 확인" style="text;html=1;strokeColor=default;fillColor=none;align=center;verticalAlign=middle;whiteSpace=wrap;rounded=0;" parent="WIyWlLk6GJQsqaUBKTNV-1" vertex="1">
          <mxGeometry x="1630" y="500" width="120" height="30" as="geometry" />
        </mxCell>
        <mxCell id="3d2tBKjzDwxo3XAQTUSo-79" value="해지 요청자 명단 확인" style="text;html=1;strokeColor=default;fillColor=none;align=center;verticalAlign=middle;whiteSpace=wrap;rounded=0;" parent="WIyWlLk6GJQsqaUBKTNV-1" vertex="1">
          <mxGeometry x="1990" y="280" width="120" height="30" as="geometry" />
        </mxCell>
        <mxCell id="3d2tBKjzDwxo3XAQTUSo-85" value="NO" style="text;html=1;strokeColor=default;fillColor=none;align=center;verticalAlign=middle;whiteSpace=wrap;rounded=0;" parent="WIyWlLk6GJQsqaUBKTNV-1" vertex="1">
          <mxGeometry x="349.99999999999994" y="650" width="60" height="30" as="geometry" />
        </mxCell>
        <mxCell id="3d2tBKjzDwxo3XAQTUSo-86" value="YES" style="text;html=1;strokeColor=default;fillColor=none;align=center;verticalAlign=middle;whiteSpace=wrap;rounded=0;" parent="WIyWlLk6GJQsqaUBKTNV-1" vertex="1">
          <mxGeometry x="-10" y="810" width="60" height="30" as="geometry" />
        </mxCell>
        <mxCell id="3d2tBKjzDwxo3XAQTUSo-87" value="YES" style="text;html=1;strokeColor=default;fillColor=none;align=center;verticalAlign=middle;whiteSpace=wrap;rounded=0;" parent="WIyWlLk6GJQsqaUBKTNV-1" vertex="1">
          <mxGeometry x="1380" y="1285" width="60" height="30" as="geometry" />
        </mxCell>
        <mxCell id="3d2tBKjzDwxo3XAQTUSo-88" value="YES" style="text;html=1;strokeColor=default;fillColor=none;align=center;verticalAlign=middle;whiteSpace=wrap;rounded=0;" parent="WIyWlLk6GJQsqaUBKTNV-1" vertex="1">
          <mxGeometry x="3090" y="1430" width="60" height="30" as="geometry" />
        </mxCell>
        <mxCell id="3d2tBKjzDwxo3XAQTUSo-89" value="NO" style="text;html=1;strokeColor=default;fillColor=none;align=center;verticalAlign=middle;whiteSpace=wrap;rounded=0;" parent="WIyWlLk6GJQsqaUBKTNV-1" vertex="1">
          <mxGeometry x="2960" y="1310" width="60" height="30" as="geometry" />
        </mxCell>
        <mxCell id="3d2tBKjzDwxo3XAQTUSo-91" style="edgeStyle=orthogonalEdgeStyle;rounded=0;orthogonalLoop=1;jettySize=auto;html=1;strokeColor=#FF3333;" parent="WIyWlLk6GJQsqaUBKTNV-1" source="3d2tBKjzDwxo3XAQTUSo-90" target="3d2tBKjzDwxo3XAQTUSo-92" edge="1">
          <mxGeometry relative="1" as="geometry">
            <mxPoint x="180.00000000000045" y="920" as="targetPoint" />
          </mxGeometry>
        </mxCell>
        <mxCell id="3d2tBKjzDwxo3XAQTUSo-90" value="수거신청&amp;nbsp;&lt;br&gt;여부 확인" style="rhombus;whiteSpace=wrap;html=1;" parent="WIyWlLk6GJQsqaUBKTNV-1" vertex="1">
          <mxGeometry x="-0.060000000000002274" y="880" width="96" height="80" as="geometry" />
        </mxCell>
        <mxCell id="3d2tBKjzDwxo3XAQTUSo-92" value="수거 신청 &lt;br&gt;내역 페이지" style="ellipse;whiteSpace=wrap;html=1;aspect=fixed;" parent="WIyWlLk6GJQsqaUBKTNV-1" vertex="1">
          <mxGeometry x="140.00000000000045" y="1010" width="80" height="80" as="geometry" />
        </mxCell>
        <mxCell id="3d2tBKjzDwxo3XAQTUSo-93" value="NO" style="text;html=1;strokeColor=default;fillColor=none;align=center;verticalAlign=middle;whiteSpace=wrap;rounded=0;" parent="WIyWlLk6GJQsqaUBKTNV-1" vertex="1">
          <mxGeometry x="110" y="880" width="60" height="30" as="geometry" />
        </mxCell>
        <mxCell id="3d2tBKjzDwxo3XAQTUSo-94" value="YES" style="text;html=1;strokeColor=default;fillColor=none;align=center;verticalAlign=middle;whiteSpace=wrap;rounded=0;" parent="WIyWlLk6GJQsqaUBKTNV-1" vertex="1">
          <mxGeometry x="290" y="810" width="60" height="30" as="geometry" />
        </mxCell>
        <mxCell id="3d2tBKjzDwxo3XAQTUSo-95" value="NO" style="text;html=1;strokeColor=default;fillColor=none;align=center;verticalAlign=middle;whiteSpace=wrap;rounded=0;" parent="WIyWlLk6GJQsqaUBKTNV-1" vertex="1">
          <mxGeometry x="419.99999999999994" y="805" width="60" height="30" as="geometry" />
        </mxCell>
        <mxCell id="3d2tBKjzDwxo3XAQTUSo-97" value="수거권 사용자" style="rhombus;whiteSpace=wrap;html=1;rounded=1;" parent="WIyWlLk6GJQsqaUBKTNV-1" vertex="1">
          <mxGeometry x="280" y="410" width="100" height="80" as="geometry" />
        </mxCell>
        <mxCell id="3d2tBKjzDwxo3XAQTUSo-99" value="사용" style="text;html=1;strokeColor=default;fillColor=none;align=center;verticalAlign=middle;whiteSpace=wrap;rounded=0;" parent="WIyWlLk6GJQsqaUBKTNV-1" vertex="1">
          <mxGeometry x="220" y="480" width="60" height="30" as="geometry" />
        </mxCell>
        <mxCell id="3d2tBKjzDwxo3XAQTUSo-100" value="해지" style="text;html=1;strokeColor=default;fillColor=none;align=center;verticalAlign=middle;whiteSpace=wrap;rounded=0;" parent="WIyWlLk6GJQsqaUBKTNV-1" vertex="1">
          <mxGeometry x="390" y="480" width="60" height="30" as="geometry" />
        </mxCell>
        <mxCell id="3d2tBKjzDwxo3XAQTUSo-103" style="edgeStyle=orthogonalEdgeStyle;rounded=0;orthogonalLoop=1;jettySize=auto;html=1;entryX=1;entryY=0.5;entryDx=0;entryDy=0;" parent="WIyWlLk6GJQsqaUBKTNV-1" source="3d2tBKjzDwxo3XAQTUSo-101" target="hfUMV4JjxT8LaMkukJHo-1" edge="1">
          <mxGeometry relative="1" as="geometry">
            <Array as="points">
              <mxPoint x="880" y="1300" />
              <mxPoint x="880" y="120" />
            </Array>
          </mxGeometry>
        </mxCell>
        <mxCell id="3d2tBKjzDwxo3XAQTUSo-101" value="결제완료 화면" style="ellipse;whiteSpace=wrap;html=1;rounded=1;" parent="WIyWlLk6GJQsqaUBKTNV-1" vertex="1">
          <mxGeometry x="710" y="1260" width="80" height="80" as="geometry" />
        </mxCell>
        <mxCell id="3d2tBKjzDwxo3XAQTUSo-105" value="수거기사에 대한 내용은 시스템으로 만들어져 있지 않다.&lt;br&gt;&lt;br&gt;** 수거 기사에 대한 내용 예측 프로세스" style="text;html=1;strokeColor=#FF3333;fillColor=#FFFF33;align=center;verticalAlign=middle;whiteSpace=wrap;rounded=0;sketch=1;curveFitting=1;jiggle=2;" parent="WIyWlLk6GJQsqaUBKTNV-1" vertex="1">
          <mxGeometry x="2840" y="840" width="240" height="150" as="geometry" />
        </mxCell>
        <mxCell id="3d2tBKjzDwxo3XAQTUSo-107" value="" style="endArrow=classic;html=1;rounded=0;" parent="WIyWlLk6GJQsqaUBKTNV-1" edge="1">
          <mxGeometry width="50" height="50" relative="1" as="geometry">
            <mxPoint x="990" y="1510" as="sourcePoint" />
            <mxPoint x="990" y="1560" as="targetPoint" />
          </mxGeometry>
        </mxCell>
        <mxCell id="3d2tBKjzDwxo3XAQTUSo-110" value="YES" style="text;html=1;strokeColor=default;fillColor=none;align=center;verticalAlign=middle;whiteSpace=wrap;rounded=0;" parent="WIyWlLk6GJQsqaUBKTNV-1" vertex="1">
          <mxGeometry x="2060" y="810" width="60" height="30" as="geometry" />
        </mxCell>
        <mxCell id="3d2tBKjzDwxo3XAQTUSo-119" style="edgeStyle=orthogonalEdgeStyle;rounded=0;orthogonalLoop=1;jettySize=auto;html=1;entryX=0.5;entryY=0;entryDx=0;entryDy=0;" parent="WIyWlLk6GJQsqaUBKTNV-1" source="3d2tBKjzDwxo3XAQTUSo-114" target="3d2tBKjzDwxo3XAQTUSo-118" edge="1">
          <mxGeometry relative="1" as="geometry">
            <Array as="points">
              <mxPoint x="1760" y="1280" />
              <mxPoint x="1488" y="1280" />
            </Array>
          </mxGeometry>
        </mxCell>
        <mxCell id="3d2tBKjzDwxo3XAQTUSo-123" style="edgeStyle=orthogonalEdgeStyle;rounded=0;orthogonalLoop=1;jettySize=auto;html=1;entryX=0.5;entryY=0;entryDx=0;entryDy=0;" parent="WIyWlLk6GJQsqaUBKTNV-1" source="3d2tBKjzDwxo3XAQTUSo-114" target="hfUMV4JjxT8LaMkukJHo-305" edge="1">
          <mxGeometry relative="1" as="geometry">
            <Array as="points">
              <mxPoint x="1760" y="1280" />
              <mxPoint x="1680" y="1280" />
            </Array>
          </mxGeometry>
        </mxCell>
        <mxCell id="3d2tBKjzDwxo3XAQTUSo-114" value="" style="whiteSpace=wrap;html=1;rounded=0;shadow=0;comic=0;labelBackgroundColor=none;strokeWidth=1;fillColor=#000000;fontFamily=Verdana;fontSize=12;align=center;rotation=0;" parent="WIyWlLk6GJQsqaUBKTNV-1" vertex="1">
          <mxGeometry x="1640" y="1245" width="240" height="10" as="geometry" />
        </mxCell>
        <mxCell id="3d2tBKjzDwxo3XAQTUSo-121" style="edgeStyle=orthogonalEdgeStyle;rounded=0;orthogonalLoop=1;jettySize=auto;html=1;entryX=1;entryY=0.5;entryDx=0;entryDy=0;" parent="WIyWlLk6GJQsqaUBKTNV-1" source="3d2tBKjzDwxo3XAQTUSo-118" target="hfUMV4JjxT8LaMkukJHo-335" edge="1">
          <mxGeometry relative="1" as="geometry" />
        </mxCell>
        <mxCell id="3d2tBKjzDwxo3XAQTUSo-122" style="edgeStyle=orthogonalEdgeStyle;rounded=0;orthogonalLoop=1;jettySize=auto;html=1;" parent="WIyWlLk6GJQsqaUBKTNV-1" source="3d2tBKjzDwxo3XAQTUSo-118" edge="1">
          <mxGeometry relative="1" as="geometry">
            <mxPoint x="1487.9999999999995" y="1460.0000000000005" as="targetPoint" />
          </mxGeometry>
        </mxCell>
        <mxCell id="3d2tBKjzDwxo3XAQTUSo-118" value="복구 여부" style="rhombus;whiteSpace=wrap;html=1;" parent="WIyWlLk6GJQsqaUBKTNV-1" vertex="1">
          <mxGeometry x="1440" y="1300" width="96" height="80" as="geometry" />
        </mxCell>
        <mxCell id="3d2tBKjzDwxo3XAQTUSo-126" value="수거자 명단 전달" style="rounded=1;whiteSpace=wrap;html=1;" parent="WIyWlLk6GJQsqaUBKTNV-1" vertex="1">
          <mxGeometry x="1620" y="1485" width="120" height="60" as="geometry" />
        </mxCell>
      </root>
    </mxGraphModel>
  </diagram>
</mxfile>
